<svg width="222" height="110" viewBox="0 0 222 110" fill="none" xmlns="http://www.w3.org/2000/svg">
<path d="M13.1502 93.2917C14.9107 93.3669 19.2209 93.8127 23.7136 93.7431C28.2063 93.6736 35.4647 92.6761 40.1062 92.8744C44.7477 93.0728 48.0415 94.7828 51.5626 94.9333C55.0838 95.0838 58.501 93.9221 61.2331 93.7773C63.9652 93.6325 65.0743 93.9415 67.9553 94.0646C70.8362 94.1877 74.1973 94.3314 78.5187 94.516C82.8401 94.7007 91.3229 95.0633 93.8837 95.1727M93.8837 95.1727C95.3242 95.2343 96.4445 95.2821 93.8837 95.1727ZM93.8837 95.1727C92.4432 95.1111 81.0739 94.756 85.2409 94.8033C89.4078 94.8506 112.947 95.5951 118.885 95.4566C124.824 95.318 120.542 94.2196 120.873 93.9723M120.873 93.9723C121.205 93.7249 123.137 93.5459 120.873 93.9723ZM120.873 93.9723C118.61 94.3986 109.558 96.1041 107.294 96.5305M107.294 96.5305C102.945 96.9984 105.031 96.9568 107.294 96.5305ZM107.294 96.5305C111.644 96.0625 127.447 93.9916 133.391 93.7226C139.336 93.4535 141.366 94.7172 142.961 94.9162" stroke="url(#paint0_linear_5_5)" stroke-width="25" stroke-linecap="round"/>
<path d="M184.001 94.2227C184.069 94.2315 184.235 94.2653 184.411 94.2759C184.586 94.2865 184.873 94.2626 185.053 94.286C185.233 94.3094 185.354 94.3985 185.491 94.4162C185.628 94.434 185.766 94.3908 185.873 94.3925C185.98 94.3941 186.022 94.4118 186.134 94.4263C186.246 94.4409 186.376 94.4578 186.544 94.4796C186.711 94.5013 187.04 94.5441 187.14 94.557M187.14 94.557C187.196 94.5643 187.239 94.5699 187.14 94.557ZM187.14 94.557C187.084 94.5497 186.642 94.4985 186.804 94.5134C186.967 94.5284 187.881 94.6349 188.113 94.6467C188.345 94.6585 188.183 94.5947 188.197 94.5842M188.197 94.5842C188.211 94.5738 188.287 94.5715 188.197 94.5842ZM188.197 94.5842C188.107 94.597 187.747 94.6481 187.657 94.6608M187.657 94.6608C187.485 94.6691 187.567 94.6736 187.657 94.6608ZM187.657 94.6608C187.828 94.6525 188.453 94.6053 188.686 94.6111C188.919 94.6168 188.993 94.6815 189.054 94.6955" stroke="url(#paint1_linear_5_5)" stroke-width="25" stroke-linecap="round"/>
<path d="M7.032 27.2L12.344 28.224L17.72 27.2V64H7.032V27.2ZM12.344 23.424C10.424 23.424 8.84533 22.9333 7.608 21.952C6.41333 20.928 5.816 19.584 5.816 17.92C5.816 16.2133 6.41333 14.8693 7.608 13.888C8.84533 12.864 10.424 12.352 12.344 12.352C14.3067 12.352 15.8853 12.864 17.08 13.888C18.2747 14.8693 18.872 16.2133 18.872 17.92C18.872 19.584 18.2747 20.928 17.08 21.952C15.8853 22.9333 14.3067 23.424 12.344 23.424ZM24.054 27.584H34.742L37.046 41.472V64H26.358V39.872L24.054 27.584ZM50.934 26.624C54.39 26.624 57.334 27.328 59.766 28.736C62.198 30.1013 64.054 32.064 65.334 34.624C66.614 37.184 67.254 40.2347 67.254 43.776V64H56.566V45.376C56.566 42.0907 55.7767 39.616 54.198 37.952C52.6193 36.2453 50.3153 35.392 47.286 35.392C45.238 35.392 43.4247 35.8613 41.846 36.8C40.31 37.696 39.1153 38.9547 38.262 40.576C37.4513 42.1973 37.046 44.1387 37.046 46.4L33.526 44.544C33.9527 40.704 34.9767 37.4613 36.598 34.816C38.2193 32.1707 40.2673 30.144 42.742 28.736C45.2167 27.328 47.9473 26.624 50.934 26.624ZM116.574 49.152C116.147 52.2667 114.931 55.0187 112.926 57.408C110.963 59.7973 108.425 61.6533 105.31 62.976C102.195 64.2987 98.718 64.96 94.878 64.96C90.526 64.96 86.686 64.1707 83.358 62.592C80.0727 60.9707 77.4913 58.7093 75.614 55.808C73.7793 52.9067 72.862 49.5787 72.862 45.824C72.862 42.0267 73.7793 38.6987 75.614 35.84C77.4913 32.9387 80.0727 30.6773 83.358 29.056C86.686 27.4347 90.526 26.624 94.878 26.624C98.718 26.624 102.195 27.3067 105.31 28.672C108.425 29.9947 110.963 31.8507 112.926 34.24C114.931 36.5867 116.147 39.3387 116.574 42.496H105.886C105.331 40.0213 104.051 38.1227 102.046 36.8C100.083 35.4347 97.694 34.752 94.878 34.752C92.6167 34.752 90.6327 35.2 88.926 36.096C87.262 36.9493 85.982 38.208 85.086 39.872C84.19 41.4933 83.742 43.4773 83.742 45.824C83.742 48.128 84.19 50.112 85.086 51.776C85.982 53.3973 87.262 54.656 88.926 55.552C90.6327 56.4053 92.6167 56.832 94.878 56.832C97.7367 56.832 100.147 56.128 102.11 54.72C104.115 53.312 105.374 51.456 105.886 49.152H116.574ZM122.345 14.72H133.033V64H122.345V14.72ZM146.921 26.624C150.377 26.624 153.321 27.328 155.753 28.736C158.185 30.1013 160.041 32.064 161.321 34.624C162.601 37.184 163.241 40.2347 163.241 43.776V64H152.553V45.376C152.553 42.0907 151.763 39.616 150.185 37.952C148.606 36.2453 146.323 35.392 143.337 35.392C141.246 35.392 139.411 35.8613 137.833 36.8C136.297 37.696 135.102 38.9547 134.249 40.576C133.438 42.1973 133.033 44.1387 133.033 46.4L129.513 44.544C129.982 40.704 131.006 37.4613 132.585 34.816C134.206 32.1707 136.254 30.144 138.729 28.736C141.203 27.328 143.934 26.624 146.921 26.624ZM179.461 75.52C177.072 75.52 174.917 75.2213 172.997 74.624C171.077 74.0267 169.264 73.152 167.557 72V64.32C169.349 65.472 171.056 66.304 172.677 66.816C174.298 67.328 176.09 67.584 178.053 67.584C179.802 67.584 181.36 67.1787 182.725 66.368C184.09 65.6 185.221 64.2133 186.117 62.208L201.285 27.584H212.613L194.437 65.664C193.328 68.0533 191.984 69.9733 190.405 71.424C188.826 72.8747 187.098 73.92 185.221 74.56C183.386 75.2 181.466 75.52 179.461 75.52ZM181.765 61.696L165.701 27.584H177.477L192.197 61.696H181.765Z" fill="#474747"/>
<defs>
<linearGradient id="paint0_linear_5_5" x1="13.3579" y1="88.4595" x2="142.999" y2="94.0343" gradientUnits="userSpaceOnUse">
<stop stop-color="#FEBE58"/>
<stop offset="1" stop-color="#DE2BAE"/>
</linearGradient>
<linearGradient id="paint1_linear_5_5" x1="184.03" y1="94" x2="189.059" y2="94.6573" gradientUnits="userSpaceOnUse">
<stop stop-color="#FEBE58"/>
<stop offset="1" stop-color="#DE2BAE"/>
</linearGradient>
</defs>
</svg>
